<svg width="32" height="32" viewBox="0 0 32 32" fill="none" xmlns="http://www.w3.org/2000/svg">
<path d="M15.9796 5C13.3127 5 11.1508 7.16195 11.1508 9.82886C11.1508 12.4958 13.3127 14.6577 15.9796 14.6577C18.6465 14.6577 20.8085 12.4958 20.8085 9.82886C20.8085 7.16195 18.6465 5 15.9796 5Z" fill="black"/>
<path d="M10.8289 17.2331C8.16195 17.2331 6 19.3951 6 22.062V23.5921C6 24.562 6.70293 25.389 7.66019 25.5453C13.17 26.4449 18.7893 26.4449 24.2991 25.5453C25.2563 25.389 25.9593 24.562 25.9593 23.5921V22.062C25.9593 19.3951 23.7973 17.2331 21.1304 17.2331H20.6915C20.4539 17.2331 20.2178 17.2707 19.992 17.3444L18.8775 17.7083C16.9945 18.3232 14.9648 18.3232 13.0818 17.7083L11.9673 17.3444C11.7414 17.2707 11.5054 17.2331 11.2678 17.2331H10.8289Z" fill="black"/>
<circle cx="16" cy="16" r="15" stroke="black" stroke-width="2"/>
</svg>
