<svg width="30" height="30" viewBox="0 0 30 30" fill="none" xmlns="http://www.w3.org/2000/svg">
<path d="M0 10.0125C0 4.48276 4.48276 0 10.0125 0H22.2241C22.9454 0 23.5301 0.584708 23.5301 1.30598C23.5301 2.02726 22.9454 2.61197 22.2241 2.61197H10.0125C5.92531 2.61197 2.61197 5.92531 2.61197 10.0125V22.3878C2.61197 23.1091 2.02726 23.6938 1.30598 23.6938C0.584708 23.6938 0 23.1091 0 22.3878V10.0125Z" fill="black"/>
<path d="M26.3853 6.16991C20.7418 5.53917 14.9551 5.53917 9.31162 6.16991C7.70391 6.3496 6.41197 7.61483 6.22248 9.235C5.55314 14.9578 5.55314 20.7391 6.22248 26.4619C6.41197 28.082 7.70391 29.3473 9.31162 29.5269C14.9551 30.1577 20.7418 30.1577 26.3853 29.5269C27.993 29.3473 29.2849 28.082 29.4744 26.4619C30.1438 20.7391 30.1438 14.9578 29.4744 9.235C29.2849 7.61483 27.993 6.3496 26.3853 6.16991Z" fill="black"/>
</svg>
