<svg width="30" height="30" viewBox="0 0 30 30" fill="none" xmlns="http://www.w3.org/2000/svg">
<path fill-rule="evenodd" clip-rule="evenodd" d="M18.9032 20.7319C14.3336 24.3918 7.64473 24.1037 3.40877 19.8678C-1.13626 15.3228 -1.13626 7.9538 3.40877 3.40877C7.9538 -1.13626 15.3228 -1.13626 19.8678 3.40877C24.1037 7.64473 24.3918 14.3336 20.732 18.9032L29.6212 27.7925C30.1262 28.2975 30.1262 29.1162 29.6212 29.6212C29.1162 30.1262 28.2975 30.1262 27.7925 29.6212L18.9032 20.7319ZM5.23755 18.039C1.70253 14.504 1.70253 8.77258 5.23755 5.23755C8.77258 1.70253 14.504 1.70253 18.039 5.23755C21.5714 8.76998 21.574 14.4956 18.0468 18.0312C18.0442 18.0338 18.0416 18.0364 18.039 18.039C18.0364 18.0416 18.0338 18.0442 18.0312 18.0468C14.4956 21.574 8.76999 21.5714 5.23755 18.039Z" fill="black"/>
</svg>
