<svg width="40" height="50" viewBox="0 0 40 50" fill="none" xmlns="http://www.w3.org/2000/svg">
<path fill-rule="evenodd" clip-rule="evenodd" d="M0.625 7.5C0.625 3.70305 3.70304 0.625 7.5 0.625H27.4671C28.8765 0.625 30.1995 1.30393 31.0213 2.44887L38.5542 12.9436C39.0879 13.6872 39.375 14.5794 39.375 15.4947V42.5C39.375 46.297 36.297 49.375 32.5 49.375H7.5C3.70304 49.375 0.625 46.297 0.625 42.5V7.5ZM7.5 4.375C5.77411 4.375 4.375 5.77411 4.375 7.5V42.5C4.375 44.2259 5.77411 45.625 7.5 45.625H32.5C34.2259 45.625 35.625 44.2259 35.625 42.5V17.2426H27.5C26.4645 17.2426 25.625 16.4031 25.625 15.3676V4.375H7.5Z" fill="white"/>
<path d="M27.7142 28.0463C27.0673 28.8549 25.8874 28.986 25.0788 28.3391L21.8751 25.7762V34.375C21.8751 35.4105 21.0357 36.25 20.0001 36.25C18.9646 36.25 18.1251 35.4105 18.1251 34.375V25.7761L14.9214 28.3391C14.1128 28.986 12.9328 28.8549 12.2859 28.0463C11.639 27.2377 11.7701 26.0578 12.5788 25.4109L18.8221 20.4162C19.1402 20.159 19.5442 20.0037 19.9843 20.0001C19.9896 20 19.9949 20 20.0001 20L20.0062 20C20.454 20.0014 20.8648 20.1598 21.1865 20.423L27.4214 25.4109C28.23 26.0578 28.3611 27.2377 27.7142 28.0463Z" fill="white"/>
</svg>
