<svg width="28" height="30" viewBox="0 0 28 30" fill="none" xmlns="http://www.w3.org/2000/svg">
<path d="M11.0062 11.0062C11.0062 9.48657 12.2381 8.25466 13.7578 8.25466C15.2774 8.25466 16.5093 9.48657 16.5093 11.0062C16.5093 12.5258 15.2774 13.7578 13.7578 13.7578C12.2381 13.7578 11.0062 12.5258 11.0062 11.0062Z" fill="black"/>
<path fill-rule="evenodd" clip-rule="evenodd" d="M2.75156 11.0062C2.75156 4.92765 7.67921 0 13.7578 0C19.8363 0 24.764 4.92765 24.764 11.0062C24.764 13.1637 24.1432 15.1762 23.0705 16.8749L27.3576 24.3003C27.589 24.7012 27.5645 25.2005 27.2949 25.5768C27.0252 25.9531 26.5604 26.1368 26.1063 26.0465L21.993 25.2286L20.6446 29.1999C20.4958 29.6382 20.1042 29.9489 19.6435 29.9943C19.1828 30.0397 18.7382 29.8113 18.5067 29.4104L14.2298 22.0025C14.0733 22.0091 13.9159 22.0124 13.7578 22.0124C13.5996 22.0124 13.4423 22.0091 13.2858 22.0025L9.00881 29.4104C8.77758 29.8109 8.33358 30.0392 7.87329 29.9944C7.413 29.9496 7.0214 29.6399 6.87176 29.2023L5.51653 25.2391L1.4067 26.047C0.952923 26.1363 0.488885 25.952 0.219931 25.5758C-0.0490231 25.1995 -0.0732424 24.7008 0.15799 24.3003L4.44506 16.8749C3.37235 15.1763 2.75156 13.1637 2.75156 11.0062ZM6.03128 18.8444C7.33984 20.1345 8.96988 21.0993 10.7903 21.6077L8.26376 25.9839L7.41503 23.5019C7.2242 22.9439 6.65045 22.6126 6.07176 22.7264L3.49793 23.2323L6.03128 18.8444ZM16.7252 21.6077L19.248 25.9774L20.0922 23.4913C20.2824 22.931 20.8584 22.5984 21.4388 22.7138L24.0139 23.2258L21.4843 18.8444C20.1757 20.1345 18.5457 21.0992 16.7252 21.6077ZM13.7578 5.89618C10.9356 5.89618 8.64773 8.18402 8.64773 11.0062C8.64773 13.8284 10.9356 16.1162 13.7578 16.1162C16.5799 16.1162 18.8678 13.8284 18.8678 11.0062C18.8678 8.18402 16.5799 5.89618 13.7578 5.89618Z" fill="black"/>
</svg>
