<svg width="28" height="30" viewBox="0 0 28 30" fill="none" xmlns="http://www.w3.org/2000/svg">
<path fill-rule="evenodd" clip-rule="evenodd" d="M13.5798 6.20792C10.7941 6.20792 8.5359 8.46617 8.5359 11.2519C8.5359 14.0375 10.7941 16.2958 13.5798 16.2958C16.3655 16.2958 18.6238 14.0375 18.6238 11.2519C18.6238 8.46617 16.3655 6.20792 13.5798 6.20792ZM10.8639 11.2519C10.8639 9.75187 12.0798 8.53589 13.5798 8.53589C15.0798 8.53589 16.2958 9.75187 16.2958 11.2519C16.2958 12.7518 15.0798 13.9678 13.5798 13.9678C12.0798 13.9678 10.8639 12.7518 10.8639 11.2519Z" fill="#959595"/>
<path fill-rule="evenodd" clip-rule="evenodd" d="M13.5798 0C7.3656 0 2.32798 5.03763 2.32798 11.2519C2.32798 13.5304 3.00523 15.6507 4.16942 17.4225L0.155947 24.374C-0.0722952 24.7694 -0.048389 25.2616 0.217087 25.633C0.482562 26.0043 0.940599 26.1862 1.38851 26.0982L5.44518 25.3007L6.78289 29.2126C6.93059 29.6445 7.31713 29.9503 7.77147 29.9945C8.2258 30.0387 8.66406 29.8133 8.8923 29.418L12.8961 22.4833C13.1222 22.4968 13.3502 22.5037 13.5798 22.5037C13.8094 22.5037 14.0374 22.4968 14.2636 22.4833L18.2674 29.418C18.4958 29.8137 18.9347 30.0392 19.3895 29.9944C19.8442 29.9496 20.2307 29.6429 20.3776 29.2102L21.7085 25.2904L25.7687 26.0977C26.2169 26.1868 26.6757 26.0054 26.9419 25.634C27.208 25.2626 27.2322 24.7698 27.0037 24.3741L22.9902 17.4225C24.1544 15.6507 24.8317 13.5304 24.8317 11.2519C24.8317 5.03763 19.7941 0 13.5798 0ZM4.65595 11.2519C4.65595 6.32333 8.65131 2.32797 13.5798 2.32797C18.5084 2.32797 22.5037 6.32333 22.5037 11.2519C22.5037 16.1804 18.5084 20.1757 13.5798 20.1757C8.65131 20.1757 4.65595 16.1804 4.65595 11.2519ZM10.4507 22.0629C8.66126 21.5459 7.05525 20.5966 5.75304 19.3355L3.45269 23.3199L5.99323 22.8204C6.56444 22.7081 7.13077 23.0351 7.31913 23.5859L8.15688 26.0358L10.4507 22.0629ZM18.9991 26.0294L16.709 22.0629C18.4984 21.5459 20.1044 20.5966 21.4066 19.3355L23.7033 23.3135L21.1615 22.808C20.5886 22.6941 20.0201 23.0224 19.8323 23.5754L18.9991 26.0294Z" fill="#959595"/>
</svg>
