<svg width="20" height="19" viewBox="0 0 20 19" fill="none" xmlns="http://www.w3.org/2000/svg">
<path d="M10.6061 16.9697C10.104 16.9697 9.69697 17.3767 9.69697 17.8788C9.69697 18.3809 10.104 18.7879 10.6061 18.7879H17.8788C19.0503 18.7879 20 17.8382 20 16.6667V2.12121C20 0.9497 19.0503 0 17.8788 0H10.6061C10.104 0 9.69697 0.407015 9.69697 0.909092C9.69697 1.41117 10.104 1.81818 10.6061 1.81818L17.8788 1.81818C18.0461 1.81818 18.1818 1.95385 18.1818 2.12121V16.6667C18.1818 16.834 18.0461 16.9697 17.8788 16.9697H10.6061Z" fill="#858585"/>
<path fill-rule="evenodd" clip-rule="evenodd" d="M13.6401 12.2609C14.4769 12.2609 15.1552 11.5825 15.1552 10.7457V8.02994C15.1552 7.19315 14.4769 6.51479 13.6401 6.51479L8.04907 6.51479C8.04116 6.42579 8.03288 6.33681 8.02424 6.24786L7.95875 5.57406C7.85883 4.54605 6.7672 3.9304 5.83577 4.37678C3.85489 5.3261 2.06164 6.62519 0.542249 8.21156L0.422007 8.3371C-0.140669 8.92459 -0.140669 9.85106 0.422006 10.4385L0.542249 10.5641C2.06164 12.1505 3.85489 13.4495 5.83577 14.3989C6.76719 14.8452 7.85883 14.2296 7.95875 13.2016L8.02424 12.5278C8.03288 12.4388 8.04116 12.3499 8.04907 12.2609H13.6401ZM7.20619 10.4427C6.88333 10.4427 6.59789 10.6115 6.43646 10.8678C6.35785 10.9927 6.30865 11.1383 6.29886 11.2952C6.27687 11.6478 6.24878 12.0001 6.21458 12.3519L6.19558 12.5475C4.93976 11.9003 3.77353 11.0943 2.72531 10.1502C2.45336 9.90525 2.18936 9.65101 1.93379 9.38782C3.17444 8.11018 4.61396 7.04326 6.19557 6.22817L6.21458 6.42374C6.24878 6.77559 6.27687 7.12789 6.29886 7.48047C6.32875 7.95964 6.72609 8.33297 7.20619 8.33297H13.3371V10.4427H7.20619Z" fill="#858585"/>
</svg>
