<svg width="41" height="40" viewBox="0 0 41 40" fill="none" xmlns="http://www.w3.org/2000/svg">
<path d="M5.72003 15C5.72003 9.70729 10.0714 5.41669 15.4391 5.41669H27.2928C27.9929 5.41669 28.5605 5.97633 28.5605 6.66669C28.5605 7.35704 27.9929 7.91669 27.2928 7.91669H15.4391C11.4717 7.91669 8.25544 11.088 8.25544 15V26.8448C8.25544 27.5352 7.68787 28.0948 6.98774 28.0948C6.2876 28.0948 5.72003 27.5352 5.72003 26.8448V15Z" fill="#3F3F3F"/>
<path d="M31.332 11.3221C25.8539 10.7184 20.2368 10.7184 14.7587 11.3221C13.1981 11.4941 11.9441 12.7051 11.7601 14.2558C11.1104 19.7333 11.1104 25.2668 11.7601 30.7442C11.9441 32.2949 13.1981 33.5059 14.7587 33.6779C20.2368 34.2816 25.8539 34.2816 31.332 33.6779C32.8926 33.5059 34.1467 32.2949 34.3306 30.7442C34.9803 25.2668 34.9803 19.7333 34.3306 14.2558C34.1467 12.7051 32.8926 11.4941 31.332 11.3221Z" fill="#3F3F3F"/>
</svg>
