<svg width="40" height="45" viewBox="0 0 40 45" fill="none" xmlns="http://www.w3.org/2000/svg">
<path d="M8.86927 17.219C8.9622 16.6381 8.83315 14.8338 7.57356 12.2643C5.99908 9.05251 3.39842 8.70722 2.96115 6.24424C2.52387 3.78126 4.21358 2.47025 5.85074 1.99468C7.4879 1.5191 11.5783 1.04316 15.0323 5.30616C18.4863 9.56915 17.2864 12.5077 17.6813 12.9542C18.0762 13.4006 18.7185 13.9479 19.5871 13.5876C20.4557 13.2274 21.5242 12.3774 24.4774 11.1527C27.4306 9.92789 33.1843 8.55866 33.975 16.1637C35.3072 17.8488 37.6019 21.9823 36.1241 25.0361M36.1241 25.0361C37.4737 26.4427 39.5014 29.9819 36.8148 32.8861C35.2217 34.9029 29.8266 38.5507 20.9906 37.008M36.1241 25.0361C34.0875 26.7079 29.3249 29.6415 25.6866 28.8454M24.4336 37.4108C22.0806 39.4036 15.4028 43.2716 7.51453 42.8003L1.69027 29.1464C1.63406 28.6951 1.67111 27.5678 2.26902 26.6689C3.01641 25.5453 5.02727 24.5079 6.6695 22.6064C7.98329 21.0851 8.72553 18.1601 8.96928 16.9741M19.2083 15.5754C19.2103 17.3375 19.7839 20.9508 22.0624 21.3077C24.9105 21.7538 34.0962 16.9271 34.0488 16.3366M22.4836 21.3364C21.7749 23.1898 21.283 27.245 24.9851 28.6388C25.2134 28.7247 25.4476 28.7931 25.6866 28.8454M25.6866 28.8454C24.9882 31.6814 25.4758 36.9785 33.0143 35.4794" stroke="white" stroke-width="3"/>
</svg>
