<svg width="61" height="58" viewBox="0 0 61 58" fill="none" xmlns="http://www.w3.org/2000/svg">
<path d="M60.3597 29C60.3597 45.0163 46.9651 58 30.4419 58C13.9187 58 0.524048 45.0163 0.524048 29C0.524048 12.9837 13.9187 0 30.4419 0C46.9651 0 60.3597 12.9837 60.3597 29Z" fill="#D9D9D9"/>
<path fill-rule="evenodd" clip-rule="evenodd" d="M21.6625 19.9893C21.6625 15.2893 25.5932 11.4792 30.4419 11.4792C35.2907 11.4792 39.2214 15.2893 39.2214 19.9893C39.2214 24.6893 35.2907 28.4994 30.4419 28.4994C25.5932 28.4994 21.6625 24.6893 21.6625 19.9893ZM30.4419 14.4827C27.3045 14.4827 24.7611 16.9481 24.7611 19.9893C24.7611 23.0305 27.3045 25.4958 30.4419 25.4958C33.5794 25.4958 36.1227 23.0305 36.1227 19.9893C36.1227 16.9481 33.5794 14.4827 30.4419 14.4827Z" fill="white"/>
<path fill-rule="evenodd" clip-rule="evenodd" d="M22.1789 34.5066C19.6119 34.5066 17.5309 36.5237 17.5309 39.0119V41.3913C17.5309 41.4275 17.558 41.4584 17.5949 41.4643C26.1033 42.8108 34.7806 42.8108 43.2889 41.4643C43.3258 41.4584 43.3529 41.4275 43.3529 41.3913V39.0119C43.3529 36.5237 41.2719 34.5066 38.7049 34.5066H38.0008C37.9463 34.5066 37.8922 34.5149 37.8405 34.5313L36.0525 35.0972C32.4068 36.2511 28.477 36.2511 24.8313 35.0972L23.0434 34.5313C22.9916 34.5149 22.9375 34.5066 22.883 34.5066H22.1789ZM14.4323 39.0119C14.4323 34.8649 17.9006 31.503 22.1789 31.503H22.883C23.2642 31.503 23.6429 31.5614 24.0052 31.6761L25.7931 32.242C28.8138 33.1981 32.07 33.1981 35.0907 32.242L36.8787 31.6761C37.241 31.5614 37.6197 31.503 38.0008 31.503H38.7049C42.9833 31.503 46.4515 34.8649 46.4515 39.0119V41.3913C46.4515 42.8996 45.3239 44.1856 43.7882 44.4286C34.9492 45.8274 25.9346 45.8274 17.0956 44.4286C15.56 44.1856 14.4323 42.8996 14.4323 41.3913V39.0119Z" fill="white"/>
</svg>
