<svg width="40" height="40" viewBox="0 0 40 40" fill="none" xmlns="http://www.w3.org/2000/svg">
<path d="M17.0833 15.8333C17.0833 14.2225 18.3892 12.9166 20 12.9166C21.6108 12.9166 22.9167 14.2225 22.9167 15.8333C22.9167 17.4441 21.6108 18.75 20 18.75C18.3892 18.75 17.0833 17.4441 17.0833 15.8333Z" fill="black"/>
<path fill-rule="evenodd" clip-rule="evenodd" d="M8.33333 15.8333C8.33333 9.38997 13.5567 4.16663 20 4.16663C26.4433 4.16663 31.6667 9.38997 31.6667 15.8333C31.6667 18.1203 31.0086 20.2536 29.8715 22.0542L34.4159 29.9252C34.6612 30.3501 34.6352 30.8794 34.3494 31.2782C34.0636 31.6771 33.5709 31.8719 33.0896 31.7762L28.7294 30.9092L27.3001 35.1187C27.1423 35.5834 26.7273 35.9127 26.2389 35.9608C25.7506 36.0089 25.2793 35.7668 25.0339 35.3418L20.5003 27.4894C20.3344 27.4964 20.1676 27.5 20 27.5C19.8324 27.5 19.6656 27.4964 19.4997 27.4894L14.9661 35.3418C14.721 35.7664 14.2503 36.0085 13.7624 35.961C13.2745 35.9135 12.8594 35.5851 12.7008 35.1213L11.2642 30.9203L6.90777 31.7767C6.42676 31.8713 5.93488 31.6759 5.64979 31.2771C5.36469 30.8783 5.33902 30.3497 5.58413 29.9252L10.1285 22.0542C8.99138 20.2536 8.33333 18.1203 8.33333 15.8333ZM11.8099 24.1419C13.1969 25.5093 14.9248 26.532 16.8545 27.071L14.1763 31.7098L13.2766 29.0788C13.0744 28.4873 12.4662 28.1362 11.8528 28.2568L9.12449 28.7931L11.8099 24.1419ZM23.1455 27.071L25.8197 31.7029L26.7145 29.0675C26.9162 28.4736 27.5267 28.1211 28.1419 28.2434L30.8715 28.7862L28.1901 24.1419C26.8031 25.5093 25.0752 26.532 23.1455 27.071ZM20 10.4166C17.0084 10.4166 14.5833 12.8418 14.5833 15.8333C14.5833 18.8248 17.0084 21.25 20 21.25C22.9915 21.25 25.4167 18.8248 25.4167 15.8333C25.4167 12.8418 22.9915 10.4166 20 10.4166Z" fill="black"/>
</svg>
