<svg width="31" height="30" viewBox="0 0 31 30" fill="none" xmlns="http://www.w3.org/2000/svg">
<path fill-rule="evenodd" clip-rule="evenodd" d="M19.516 20.7429C15.0363 24.2807 8.47898 24.0022 4.32634 19.9076C-0.129288 15.5142 -0.129288 8.39108 4.32634 3.99769C8.78197 -0.395713 16.006 -0.395712 20.4616 3.99769C24.6142 8.09232 24.8966 14.558 21.3088 18.9751L30.0232 27.5679C30.5183 28.056 30.5183 28.8475 30.0232 29.3356C29.5281 29.8238 28.7255 29.8238 28.2304 29.3356L19.516 20.7429ZM6.11915 18.1398C2.65366 14.7227 2.65366 9.18254 6.11915 5.76545C9.58463 2.34836 15.2033 2.34837 18.6688 5.76545C22.1317 9.18003 22.1343 14.7146 18.6764 18.1323C18.6739 18.1348 18.6713 18.1373 18.6688 18.1398C18.6662 18.1423 18.6637 18.1448 18.6612 18.1473C15.1951 21.5569 9.58209 21.5544 6.11915 18.1398Z" fill="#3F3F3F"/>
</svg>
