<svg width="31" height="33" viewBox="0 0 31 33" fill="none" xmlns="http://www.w3.org/2000/svg">
<path fill-rule="evenodd" clip-rule="evenodd" d="M15.4448 7.41667C12.4109 7.41667 9.95142 9.84179 9.95142 12.8333C9.95142 15.8249 12.4109 18.25 15.4448 18.25C18.4787 18.25 20.9382 15.8249 20.9382 12.8333C20.9382 9.84179 18.4787 7.41667 15.4448 7.41667ZM12.4868 12.8333C12.4868 11.2225 13.8112 9.91667 15.4448 9.91667C17.0785 9.91667 18.4028 11.2225 18.4028 12.8333C18.4028 14.4442 17.0785 15.75 15.4448 15.75C13.8112 15.75 12.4868 14.4442 12.4868 12.8333Z" fill="#3F3F3F"/>
<path fill-rule="evenodd" clip-rule="evenodd" d="M15.4448 0.75C8.67685 0.75 3.19033 6.15989 3.19033 12.8333C3.19033 15.2802 3.92793 17.5572 5.19586 19.46L0.82475 26.9252C0.57617 27.3498 0.602206 27.8784 0.891338 28.2772C1.18047 28.676 1.67932 28.8713 2.16714 28.7767L6.5853 27.9203L8.0422 32.1213C8.20307 32.5852 8.62405 32.9135 9.11887 32.961C9.61369 33.0085 10.091 32.7664 10.3396 32.3419L14.7001 24.8947C14.9464 24.9093 15.1948 24.9167 15.4448 24.9167C15.6949 24.9167 15.9432 24.9093 16.1895 24.8947L20.5501 32.3419C20.7989 32.7669 21.2769 33.009 21.7721 32.9609C22.2674 32.9128 22.6883 32.5834 22.8483 32.1188L24.2978 27.9092L28.7198 28.7762C29.2079 28.8719 29.7076 28.6772 29.9975 28.2783C30.2874 27.8794 30.3137 27.3502 30.0649 26.9252L25.6938 19.46C26.9617 17.5572 27.6993 15.2802 27.6993 12.8333C27.6993 6.15989 22.2128 0.75 15.4448 0.75ZM5.72574 12.8333C5.72574 7.5406 10.0771 3.25 15.4448 3.25C20.8125 3.25 25.1639 7.5406 25.1639 12.8333C25.1639 18.1261 20.8125 22.4167 15.4448 22.4167C10.0771 22.4167 5.72574 18.1261 5.72574 12.8333ZM12.0368 24.4433C10.088 23.888 8.33884 22.8686 6.92059 21.5144L4.41526 25.7931L7.18219 25.2568C7.80429 25.1362 8.42108 25.4873 8.62623 26.0789L9.53863 28.7098L12.0368 24.4433ZM21.347 28.7029L18.8528 24.4433C20.8017 23.888 22.5508 22.8686 23.969 21.5144L26.4703 25.7862L23.702 25.2435C23.0782 25.1212 22.4589 25.4737 22.2544 26.0676L21.347 28.7029Z" fill="#3F3F3F"/>
</svg>
