<svg width="33" height="32" viewBox="0 0 33 32" fill="none" xmlns="http://www.w3.org/2000/svg">
<path fill-rule="evenodd" clip-rule="evenodd" d="M10.9607 10.375C10.9607 7.44099 13.3729 5.0625 16.3485 5.0625C19.324 5.0625 21.7362 7.44099 21.7362 10.375C21.7362 13.309 19.324 15.6875 16.3485 15.6875C13.3729 15.6875 10.9607 13.309 10.9607 10.375ZM16.3485 6.9375C14.4231 6.9375 12.8623 8.47652 12.8623 10.375C12.8623 12.2735 14.4231 13.8125 16.3485 13.8125C18.2738 13.8125 19.8346 12.2735 19.8346 10.375C19.8346 8.47652 18.2738 6.9375 16.3485 6.9375Z" fill="#3F3F3F"/>
<path fill-rule="evenodd" clip-rule="evenodd" d="M11.2776 19.4375C9.70234 19.4375 8.4253 20.6967 8.4253 22.25V23.7354C8.4253 23.758 8.44192 23.7773 8.46456 23.7809C13.6859 24.6215 19.011 24.6215 24.2324 23.7809C24.255 23.7773 24.2716 23.758 24.2716 23.7354V22.25C24.2716 20.6967 22.9946 19.4375 21.4193 19.4375H20.9872C20.9537 19.4375 20.9205 19.4427 20.8888 19.4529L19.7916 19.8062C17.5543 20.5265 15.1426 20.5265 12.9054 19.8062L11.8081 19.4529C11.7764 19.4427 11.7432 19.4375 11.7098 19.4375H11.2776ZM6.52374 22.25C6.52374 19.6612 8.65213 17.5625 11.2776 17.5625H11.7098C11.9436 17.5625 12.1761 17.599 12.3984 17.6706L13.4956 18.0238C15.3493 18.6207 17.3476 18.6207 19.2013 18.0238L20.2985 17.6706C20.5209 17.599 20.7533 17.5625 20.9872 17.5625H21.4193C24.0448 17.5625 26.1732 19.6612 26.1732 22.25V23.7354C26.1732 24.6769 25.4812 25.4797 24.5388 25.6314C19.1145 26.5046 13.5825 26.5046 8.15816 25.6314C7.21576 25.4797 6.52374 24.6769 6.52374 23.7354V22.25Z" fill="#3F3F3F"/>
<circle cx="16.136" cy="16" r="15" stroke="#3F3F3F" stroke-width="2"/>
</svg>
