<svg width="24" height="26" viewBox="0 0 24 26" fill="none" xmlns="http://www.w3.org/2000/svg">
<path fill-rule="evenodd" clip-rule="evenodd" d="M9.92493 2.39264C9.64746 2.39264 9.39133 2.5349 9.25399 2.76528L3.66897 12.1336C2.92864 13.3755 2.61796 14.8092 2.78132 16.2298L3.37078 21.3559C3.47566 22.268 4.2249 22.9904 5.17833 23.0988L8.71205 23.5005C11.0448 23.7657 13.4101 23.5358 15.6393 22.8273C16.7401 22.4774 17.6219 21.6789 18.0467 20.6472L20.8911 13.7395C20.9607 13.5707 21.0088 13.3944 21.0343 13.2146C21.25 11.6959 19.8588 10.4147 18.2787 10.677L12.5771 11.6233C10.7761 11.9223 9.22053 10.4034 9.57204 8.68917L10.6827 3.27245C10.7762 2.81663 10.411 2.39263 9.92493 2.39264ZM7.0785 1.58091C7.66117 0.603521 8.74779 1.00781e-05 9.9249 1.30384e-10C11.987 -1.76838e-05 13.5363 1.79875 13.1397 3.73253L12.0291 9.14925C12.0243 9.17246 12.0269 9.18663 12.0302 9.19681C12.0343 9.20935 12.0428 9.22404 12.0567 9.23766C12.0707 9.25128 12.0859 9.25967 12.0989 9.26388C12.1095 9.2673 12.1243 9.27004 12.1486 9.26599L17.8502 8.31967C21.0987 7.7805 23.9588 10.4142 23.5153 13.5364C23.4628 13.9061 23.364 14.2685 23.221 14.6157L20.3766 21.5233C19.6801 23.2148 18.2344 24.5239 16.4295 25.0976C13.8508 25.9172 11.1148 26.1831 8.4163 25.8764L4.88257 25.4747C2.7724 25.2348 1.11412 23.6359 0.882002 21.6173L0.292546 16.4912C0.0715215 14.5691 0.491851 12.6294 1.49348 10.9493L7.0785 1.58091Z" fill="black"/>
</svg>
