<svg width="41" height="46" viewBox="0 0 41 46" fill="url(#grad1)" xmlns="http://www.w3.org/2000/svg">
<defs>
    <linearGradient id="grad1">
      <stop offset="5%" stop-color="#FF93C0" />
      <stop offset="95%" stop-color="#95E6FF" />
    </linearGradient>
  </defs>
  <defs>
    <linearGradient id="grad2">
      <stop offset="5%" stop-color="#7C89FF" />
      <stop offset="95%" stop-color="#95E6FF" />
    </linearGradient>
  </defs>
<path d="M2.22772 25.25L2.22772 40.4375L9.59365 42.3125L15.9904 43.25L19.6733 41.75L23.1625 43.25L29.5592 44L34.599 42.3125L36.7313 38.1875V35.375L38.6697 30.875L37.7005 26.75L38.6697 23.375L37.7005 20.375L34.0175 17.75H27.8146H24.5193L23.744 16.8125L25.2947 11.9375L23.1625 6.125L19.6733 3.125L15.9904 2L13.0828 3.125V6.875L14.8273 10.25V15.6875L10.7567 20.9375L4.16612 23.375L2.22772 25.25Z" fill="url(#grad1)"/>
<path d="M13.7902 17.3119C14.1132 16.8119 14.7206 15.0994 14.5655 12.2494C14.3717 8.68691 12.0456 7.37441 12.6271 4.93691C13.2087 2.49941 15.3409 1.93691 17.0855 2.12441C18.83 2.31191 22.9007 3.43691 24.4514 8.68691C26.0021 13.9369 23.6761 16.1869 23.8699 16.7494C24.0637 17.3119 24.4514 18.0619 25.4206 18.0619C26.3898 18.0619 27.7467 17.6869 31.042 17.6869C34.3373 17.6869 40.3463 18.6244 38.0202 25.9369C38.6018 27.9994 39.1057 32.6869 36.4695 34.9369M36.4695 34.9369C37.1803 36.7494 37.6713 40.7869 33.9496 42.4369C31.6235 43.6869 25.0329 44.9869 17.2793 40.1869M36.4695 34.9369C33.8624 35.6993 28.1604 36.5828 25.0329 34.4581M20.3808 41.8744C17.3439 42.8119 9.44818 43.8244 2.15979 40.3744L2.15979 25.5619C2.28902 25.1244 2.78008 24.0994 3.71051 23.4994C4.87355 22.7494 7.19964 22.5619 9.52572 21.4369C11.3866 20.5369 13.2733 18.1244 13.984 17.1244M24.2576 19.7494C23.5468 21.3744 22.6293 24.9244 24.6453 26.1244C27.1652 27.6244 37.8264 26.6869 38.0202 26.1244M25.0329 26.3119C23.6114 27.7494 21.5051 31.2994 24.4514 33.9994C24.6331 34.1659 24.8275 34.3185 25.0329 34.4581M25.0329 34.4581C23.2238 36.8052 21.5438 41.8744 29.2974 43.3744" stroke="url(#grad2)" stroke-width="2"/>
</svg>

